<?xml version="1.0" standalone="no"?><!DOCTYPE svg PUBLIC "-//W3C//DTD SVG 1.1//EN" "http://www.w3.org/Graphics/SVG/1.1/DTD/svg11.dtd"><svg t="1546509266747" class="icon" style="" viewBox="0 0 1024 1024" version="1.1" xmlns="http://www.w3.org/2000/svg" p-id="5615" xmlns:xlink="http://www.w3.org/1999/xlink" width="200" height="200"><defs><style type="text/css"></style></defs><path d="M513.661 109.287c226.359 0 410.524 181.472 410.524 404.575 0 223.143-184.165 404.643-410.524 404.643-226.403 0-410.565-181.5-410.565-404.643 0-223.103 184.162-404.575 410.565-404.575m0-22.932C274.09 86.355 79.87 277.78 79.87 513.862c0 236.162 194.22 427.549 433.792 427.549 239.569 0 433.789-191.387 433.789-427.549C947.45 277.78 753.23 86.355 513.661 86.355z" fill="#8a8a8a" p-id="5616"></path><path d="M476.004 611.553l27.769-8.738 0.528-1.768a45.466 45.466 0 0 0 8.554-6.705l2.296-2.297-31.994-31.941h-23.415v-23.44l-31.572-31.545-2.296 2.295c-7.26 7.26-11.509 16.366-12.803 25.818l-6.679 22.858-4.566 2.721-16.209 76.025 86.004-15.047 4.383-8.236zM702.284 341.107l-23.149-23.15c-17.608-17.607-46.196-17.607-63.804 0l-16.683 16.71 86.954 86.954 16.682-16.683c17.609-17.635 17.609-46.197 0-63.831zM440.841 492.446l18.901 18.875v-0.159h15.02v33.894h33.921v15.047h-0.183l19.295 19.297 147.96-147.959-86.954-86.955-147.96 147.96zM611.608 656.245H325.562c-9.424 0-17.052 7.629-17.052 17.052 0 9.425 7.628 17.053 17.052 17.053h286.021c9.423 0 17.052-7.628 17.052-17.053 0-9.423-7.629-17.052-17.027-17.052z" fill="#8a8a8a" p-id="5617"></path></svg>