<?xml version="1.0" standalone="no"?><!DOCTYPE svg PUBLIC "-//W3C//DTD SVG 1.1//EN" "http://www.w3.org/Graphics/SVG/1.1/DTD/svg11.dtd"><svg t="1548815163233" class="icon" style="" viewBox="0 0 1024 1024" version="1.1" xmlns="http://www.w3.org/2000/svg" p-id="1116" data-spm-anchor-id="a313x.7781069.0.i2" xmlns:xlink="http://www.w3.org/1999/xlink" width="200" height="200"><defs><style type="text/css"></style></defs><path d="M738.697977 1.988906a29.290303 29.290303 0 0 0-8.661111 5.511616l-144.089391 139.758836a25.195959 25.195959 0 0 0 0 36.219191 26.613232 26.613232 0 0 0 37.400252 0l99.209089-96.453281v910.597712a26.37702 26.37702 0 0 0 52.754039 0V87.025268l99.20909 96.453281a26.140808 26.140808 0 0 0 37.006565 0 24.762904 24.762904 0 0 0 7.873737-18.109595 26.101439 26.101439 0 0 0-7.873737-18.109596L767.437118 7.500522a21.849621 21.849621 0 0 0-8.661111-5.511616 21.022878 21.022878 0 0 0-9.842171-1.968434 22.636995 22.636995 0 0 0-10.235859 1.968434z" fill="#f4ea2a" p-id="1117" data-spm-anchor-id="a313x.7781069.0.i0" class=""></path><path d="M284.777025 1021.244192a25.038484 25.038484 0 0 0 8.661111-5.511616l144.089392-140.152523a24.762904 24.762904 0 0 0 7.873737-18.109596 26.101439 26.101439 0 0 0-7.873737-18.109595 27.55808 27.55808 0 0 0-37.400252 0l-99.209089 96.453281V25.216431A25.550277 25.550277 0 0 0 274.934854 0.020472a25.904596 25.904596 0 0 0-26.37702 25.195959v910.597712l-99.209089-96.453281a27.55808 27.55808 0 0 0-37.400252 0 25.195959 25.195959 0 0 0 0 36.219191l144.089391 140.152523a25.038484 25.038484 0 0 0 8.661111 5.511616 29.565883 29.565883 0 0 0 10.235859 1.968434 29.211565 29.211565 0 0 0 9.842171-1.968434z" fill="#1296db" p-id="1118" data-spm-anchor-id="a313x.7781069.0.i1" class="selected"></path></svg>