<?xml version="1.0" standalone="no"?><!DOCTYPE svg PUBLIC "-//W3C//DTD SVG 1.1//EN" "http://www.w3.org/Graphics/SVG/1.1/DTD/svg11.dtd"><svg t="1547433696870" class="icon" style="" viewBox="0 0 1024 1024" version="1.1" xmlns="http://www.w3.org/2000/svg" p-id="4519" xmlns:xlink="http://www.w3.org/1999/xlink" width="200" height="200"><defs><style type="text/css"></style></defs><path d="M575.999 128v320.006c0 35.347-28.646 64-64 64-35.334 0-64-28.653-64-64V128c0-35.341 28.666-64 64-64 35.354 0 64 28.659 64 64z" fill="#ffffff" p-id="4520"></path><path d="M756.242 136.723c-0.074 0.254-0.234 0.465-0.312 0.719-9.766-6.031-20.609-10.438-32.93-10.438-35.348 0-64 28.652-64 64 0 23.758 13.535 43.656 32.758 54.699-0.301 0.297-0.477 0.703-0.781 1C776.059 304.219 832 401.574 832 512c0 176.73-143.27 320-320 320S192 688.73 192 512c0-110.426 55.941-207.781 141.023-265.297-0.305-0.297-0.48-0.703-0.781-1C351.465 234.66 365 214.762 365 191.004c0-35.348-28.656-64-64-64-12.32 0-23.168 4.402-32.93 10.434-0.074-0.254-0.238-0.461-0.312-0.715C145.184 216.66 64 354.746 64 512c0 247.422 200.574 448 448 448 247.422 0 448-200.578 448-448 0-157.254-81.184-295.34-203.758-375.277z" fill="#ffffff" p-id="4521"></path></svg>